HIERARCHY
ROOT joint_0
{
	OFFSET 0.000000 0.000000 0.000000
	CHANNELS 6 Xposition Yposition Zposition Zrotation Yrotation Xrotation 
	JOINT joint_1
	{
		OFFSET 14.113007 -2.961990 123.953979
		CHANNELS 3 Zrotation Yrotation Xrotation
		JOINT joint_2
		{
			OFFSET 0.764000 -2.434006 113.871948
			CHANNELS 3 Zrotation Yrotation Xrotation
			JOINT joint_3
			{
				OFFSET 0.186996 -2.169998 113.753052
				CHANNELS 3 Zrotation Yrotation Xrotation
				JOINT joint_4
				{
					OFFSET 16.096001 -2.720001 160.853027
					CHANNELS 3 Zrotation Yrotation Xrotation
					JOINT joint_5
					{
						OFFSET 34.392006 -0.188995 92.567017
						CHANNELS 3 Zrotation Yrotation Xrotation
						End Site
						{
							OFFSET 0.000000 0.000000 0.000000
						}
					}
				}
				JOINT joint_6
				{
					OFFSET 9.183998 -36.684006 89.597046
					CHANNELS 3 Zrotation Yrotation Xrotation
					JOINT joint_7
					{
						OFFSET 0.486000 -164.365997 -28.984009
						CHANNELS 3 Zrotation Yrotation Xrotation
						JOINT joint_8
						{
							OFFSET 38.899002 -34.967010 -291.651978
							CHANNELS 3 Zrotation Yrotation Xrotation
							JOINT joint_9
							{
								OFFSET 41.714005 -45.890991 -258.857056
								CHANNELS 3 Zrotation Yrotation Xrotation
								End Site
								{
									OFFSET 0.000000 0.000000 0.000000
								}
							}
						}
					}
				}
				JOINT joint_10
				{
					OFFSET 8.867004 33.650002 90.817993
					CHANNELS 3 Zrotation Yrotation Xrotation
					JOINT joint_11
					{
						OFFSET 0.018997 164.299999 -29.368042
						CHANNELS 3 Zrotation Yrotation Xrotation
						JOINT joint_12
						{
							OFFSET 29.440994 30.887997 -293.216919
							CHANNELS 3 Zrotation Yrotation Xrotation
							JOINT joint_13
							{
								OFFSET 46.174011 54.490005 -256.422058
								CHANNELS 3 Zrotation Yrotation Xrotation
								End Site
								{
									OFFSET 0.000000 0.000000 0.000000
								}
							}
						}
					}
				}
			}
		}
	}
	JOINT joint_14
	{
		OFFSET -2.264000 -89.466995 -116.150024
		CHANNELS 3 Zrotation Yrotation Xrotation
		JOINT joint_15
		{
			OFFSET -16.400993 -17.452988 -493.781982
			CHANNELS 3 Zrotation Yrotation Xrotation
			JOINT joint_16
			{
				OFFSET -50.497004 -13.404022 -424.754013
				CHANNELS 3 Zrotation Yrotation Xrotation
				JOINT joint_17
				{
					OFFSET 198.546007 -19.341003 -89.309000
					CHANNELS 3 Zrotation Yrotation Xrotation
					End Site
					{
						OFFSET 0.000000 0.000000 0.000000
					}
				}
			}
		}
	}
	JOINT joint_18
	{
		OFFSET -0.867996 96.016006 -110.817993
		CHANNELS 3 Zrotation Yrotation Xrotation
		JOINT joint_19
		{
			OFFSET -10.130997 24.658998 -493.645020
			CHANNELS 3 Zrotation Yrotation Xrotation
			JOINT joint_20
			{
				OFFSET -48.871004 19.434999 -424.714005
				CHANNELS 3 Zrotation Yrotation Xrotation
				JOINT joint_21
				{
					OFFSET 195.579996 24.926001 -94.327003
					CHANNELS 3 Zrotation Yrotation Xrotation
					End Site
					{
						OFFSET 0.000000 0.000000 0.000000
					}
				}
			}
		}
	}
}
MOTION
Frames: 13
Frame Time: 0.016667
218.918000 -170.860000 1149.047000 -4.667391 7.640275 -0.878077 -0.224238 0.038172 0.469512 -0.225461 0.010023 -0.148892 -0.224542 0.050796 0.102082 -0.844833 0.099227 2.230685 0.000000 0.000000 0.000000 -0.737715 5.335203 -1.706190 0.140509 5.261099 1.313382 -0.073560 3.377319 3.632988 0.000000 0.000000 0.000000 -0.543970 4.772802 1.636618 0.236813 4.928952 1.931200 -1.079287 2.927540 -11.461925 0.000000 0.000000 0.000000 0.037392 0.297288 0.348633 -0.005023 1.216430 0.586636 0.122883 -0.472619 0.007755 0.000000 0.000000 0.000000 -0.989158 -10.323410 4.077220 0.403098 20.250855 -3.095754 -1.708904 -3.929192 -0.274676 0.000000 0.000000 0.000000 
230.565990 -171.843000 1150.147950 -4.814555 7.640551 -0.923758 -0.046395 0.480446 0.457976 -0.043845 -0.036370 -0.131375 -0.040232 0.117035 0.088319 -0.828776 0.959809 2.203540 0.000000 0.000000 0.000000 -0.677112 5.275334 -2.193731 0.133213 5.220719 1.223732 -0.007857 3.358644 4.018480 0.000000 0.000000 0.000000 -0.529637 4.789281 1.833758 0.158024 4.937268 2.335872 -1.305652 2.221732 -11.841335 0.000000 0.000000 0.000000 0.236392 0.628199 0.242560 0.190349 1.754457 0.705194 0.325035 -0.211575 0.120236 0.000000 0.000000 0.000000 -0.937914 -13.719259 4.792335 0.609570 27.235115 -3.975392 -2.392599 -2.687707 -0.716127 0.000000 0.000000 0.000000 
242.411000 -172.332990 1150.365970 -4.877541 7.630777 -0.945901 0.097915 0.909928 0.476861 0.138937 -0.052065 -0.071933 0.145796 0.210124 0.101771 -0.792873 1.560691 2.116788 0.000000 0.000000 0.000000 -0.535149 5.208290 -2.863144 0.134327 5.192671 1.028876 0.166171 3.015277 4.667118 0.000000 0.000000 0.000000 -0.434042 4.779586 1.957154 0.058758 4.902442 2.841289 -1.594787 1.291974 -12.312548 0.000000 0.000000 0.000000 0.399479 1.069914 0.068967 0.376665 2.175655 0.879482 0.525618 -0.134923 0.212624 0.000000 0.000000 0.000000 -0.867809 -17.710086 5.273884 0.559409 34.877955 -4.513159 -3.573129 -0.128925 -1.521687 0.000000 0.000000 0.000000 
254.544010 -172.474000 1149.942990 -5.064081 7.517958 -1.102593 0.265635 1.497217 0.745470 0.401007 -0.135476 -0.098775 0.417738 0.319809 0.129241 -0.749379 2.018193 2.004235 0.000000 0.000000 0.000000 -0.345395 5.132189 -3.633954 0.132835 5.171114 0.730949 0.411248 2.443912 5.483821 0.000000 0.000000 0.000000 -0.299643 4.750753 2.029752 -0.047536 4.841037 3.440027 -1.923669 0.209163 -12.864921 0.000000 0.000000 0.000000 0.572135 1.671467 0.002996 0.624486 2.522484 1.049612 0.780015 -0.118405 0.320366 0.000000 0.000000 0.000000 -0.516328 -21.964394 5.684267 0.379526 42.519881 -4.715443 -5.175024 3.777262 -2.640973 0.000000 0.000000 0.000000 
267.319000 -172.328000 1148.909060 -5.453573 7.344130 -1.345410 0.470141 2.163193 1.091982 0.743731 -0.291882 -0.180605 0.780828 0.414530 0.154147 -0.721082 2.376186 1.927055 0.000000 0.000000 0.000000 -0.129297 5.040977 -4.284199 0.097928 5.141314 0.280051 0.641039 1.881614 6.249217 0.000000 0.000000 0.000000 -0.144549 4.768582 2.113545 -0.146605 4.825238 4.078092 -2.254082 -0.887350 -13.470608 0.000000 0.000000 0.000000 0.734744 2.426602 0.012279 0.921509 2.722654 1.164370 1.071261 -0.123278 0.439924 0.000000 0.000000 0.000000 0.160551 -25.780120 5.911262 0.248984 48.679624 -4.620436 -6.770520 6.733133 -3.597497 0.000000 0.000000 0.000000 
280.885990 -171.883000 1147.083010 -5.862890 7.210860 -1.533999 0.681849 2.644445 1.290514 1.087030 -0.401428 -0.226021 1.142534 0.480196 0.175829 -0.715522 2.652545 1.905218 0.000000 0.000000 0.000000 0.147806 4.945197 -4.730662 0.012442 5.113918 -0.406089 0.842861 1.392073 6.975003 0.000000 0.000000 0.000000 0.071351 4.860530 2.246000 -0.244472 4.876343 4.757021 -2.595126 -2.002306 -14.178628 0.000000 0.000000 0.000000 0.798357 3.314551 -0.025631 1.180805 2.670576 1.228467 1.322391 -0.199039 0.534084 0.000000 0.000000 0.000000 1.028190 -29.196426 5.778816 0.251419 53.618541 -4.312613 -8.023351 6.841684 -4.025057 0.000000 0.000000 0.000000 
295.093990 -171.151000 1144.645020 -6.235669 7.128997 -1.668101 0.897531 2.965900 1.372427 1.410741 -0.458778 -0.233972 1.478037 0.531686 0.194387 -0.722898 2.831923 1.912069 0.000000 0.000000 0.000000 0.464885 4.838124 -5.038968 -0.111003 5.080704 -1.267130 1.026859 0.915800 7.655394 0.000000 0.000000 0.000000 0.307233 4.997320 2.390412 -0.338680 4.972703 5.483070 -2.939446 -3.131849 -14.941613 0.000000 0.000000 0.000000 0.771086 4.273866 -0.125992 1.401634 2.456884 1.269735 1.539041 -0.328295 0.607255 0.000000 0.000000 0.000000 1.938673 -32.480835 5.353552 0.286523 57.733314 -3.918961 -9.036001 5.231704 -4.134056 0.000000 0.000000 0.000000 
309.847990 -170.235990 1142.163940 -6.614313 7.105982 -1.780997 1.118167 3.264000 1.372574 1.717866 -0.523071 -0.228168 1.795075 0.580827 0.197484 -0.737363 2.891605 1.932683 0.000000 0.000000 0.000000 0.722891 4.677319 -5.230969 -0.248159 4.984111 -2.112872 1.146043 0.536726 8.062720 0.000000 0.000000 0.000000 0.424656 5.169572 2.515578 -0.410967 5.130083 6.184352 -3.231014 -4.138095 -15.574168 0.000000 0.000000 0.000000 0.737832 5.165770 -0.268676 1.610694 2.288642 1.300058 1.746988 -0.417529 0.679959 0.000000 0.000000 0.000000 2.658054 -35.515500 4.884114 0.212883 60.288673 -3.692974 -9.994925 3.379469 -4.220657 0.000000 0.000000 0.000000 
324.953000 -169.223010 1139.838010 -6.954497 7.200406 -1.836144 1.345482 3.534993 1.223240 1.995705 -0.586790 -0.192316 2.073874 0.629085 0.175073 -0.760754 2.769645 1.971494 0.000000 0.000000 0.000000 0.860462 4.417460 -5.291277 -0.394145 4.766492 -2.919250 1.183367 0.313119 8.119689 0.000000 0.000000 0.000000 0.331738 5.398533 2.628830 -0.460578 5.385612 6.839966 -3.467116 -5.076960 -15.997531 0.000000 0.000000 0.000000 0.721513 5.899575 -0.478506 1.781506 2.205082 1.328475 1.920161 -0.450342 0.744026 0.000000 0.000000 0.000000 3.065495 -38.373254 4.446733 -0.070572 60.864843 -3.748535 -11.045853 1.831839 -4.428429 0.000000 0.000000 0.000000 
340.604000 -168.026000 1137.468020 -7.260442 7.374611 -1.854661 1.581493 3.739901 0.972634 2.236951 -0.632898 -0.132523 2.302828 0.670595 0.136523 -0.787151 2.525981 2.018022 0.000000 0.000000 0.000000 0.942003 4.095630 -5.242615 -0.541779 4.473729 -3.701240 1.160906 0.213240 7.911815 0.000000 0.000000 0.000000 0.123849 5.674875 2.730674 -0.494330 5.711417 7.451719 -3.651792 -5.901743 -16.270878 0.000000 0.000000 0.000000 0.713510 6.552799 -0.733472 1.913150 2.160264 1.350923 2.056127 -0.439885 0.797358 0.000000 0.000000 0.000000 3.193970 -40.930486 4.054023 -0.531404 59.710280 -4.053423 -12.049260 0.249107 -4.657478 0.000000 0.000000 0.000000 
357.290010 -166.493000 1135.026000 -7.596418 7.511593 -1.924834 1.804579 3.912842 0.781179 2.443264 -0.673826 -0.082418 2.494841 0.703851 0.099808 -0.804305 2.321820 2.046542 0.000000 0.000000 0.000000 1.041094 3.788449 -5.185099 -0.658101 4.195508 -4.299687 1.092042 0.195159 7.455084 0.000000 0.000000 0.000000 -0.070795 5.945555 2.793257 -0.509870 6.027120 7.958752 -3.744887 -6.321910 -16.419144 0.000000 0.000000 0.000000 0.752925 7.226496 -0.965005 2.049743 2.227925 1.365591 2.194865 -0.348207 0.858534 0.000000 0.000000 0.000000 3.026381 -42.784058 3.850831 -1.128878 57.076614 -4.568411 -12.855504 -1.441662 -4.825646 0.000000 0.000000 0.000000 
375.061000 -164.461000 1132.702030 -7.927711 7.640177 -2.035249 2.008902 4.025411 0.672009 2.602131 -0.685346 -0.035998 2.636676 0.731041 0.067782 -0.805822 2.169689 2.039513 0.000000 0.000000 0.000000 1.177868 3.506150 -5.168959 -0.733884 3.946894 -4.639046 0.966777 0.248902 6.668926 0.000000 0.000000 0.000000 -0.215783 6.171319 2.784936 -0.505085 6.284003 8.349272 -3.728931 -6.201724 -16.450210 0.000000 0.000000 0.000000 0.852503 7.926506 -1.186157 2.177462 2.331084 1.373933 2.322670 -0.088187 0.929950 0.000000 0.000000 0.000000 2.428245 -43.778351 3.842994 -1.970595 52.436261 -5.306997 -13.437341 -3.243049 -4.916987 0.000000 0.000000 0.000000 
393.868010 -162.092000 1130.306030 -8.320916 7.717044 -2.204089 2.210538 4.133265 0.624545 2.733851 -0.709285 -0.002194 2.757761 0.752228 0.040117 -0.799553 2.061290 2.016589 0.000000 0.000000 0.000000 1.333353 3.234164 -5.147037 -0.781225 3.707894 -4.781993 0.790759 0.382807 5.630711 0.000000 0.000000 0.000000 -0.350622 6.391938 2.741805 -0.482378 6.528756 8.623415 -3.621581 -5.670703 -16.363691 0.000000 0.000000 0.000000 1.039501 8.658518 -1.377445 2.310108 2.539747 1.373071 2.453889 0.284797 1.011662 0.000000 0.000000 0.000000 1.512345 -43.820845 4.057008 -3.002319 45.777342 -5.993380 -13.483876 -4.563202 -4.855389 0.000000 0.000000 0.000000 
